<svg xmlns="http://www.w3.org/2000/svg" width="19.513" height="15.848" viewBox="0 0 19.513 15.848">
  <path id="Icon_awesome-twitter" data-name="Icon awesome-twitter" d="M17.507,7.33c.012.173.012.347.012.52A11.3,11.3,0,0,1,6.141,19.229,11.3,11.3,0,0,1,0,17.433a8.273,8.273,0,0,0,.966.05,8.009,8.009,0,0,0,4.965-1.709A4.006,4.006,0,0,1,2.191,13a5.043,5.043,0,0,0,.755.062A4.23,4.23,0,0,0,4,12.927,4,4,0,0,1,.792,9v-.05A4.028,4.028,0,0,0,2.6,9.46,4.005,4.005,0,0,1,1.362,4.111,11.367,11.367,0,0,0,9.608,8.3a4.514,4.514,0,0,1-.1-.916A4,4,0,0,1,16.43,4.644a7.873,7.873,0,0,0,2.538-.966,3.988,3.988,0,0,1-1.758,2.2,8.017,8.017,0,0,0,2.3-.619A8.6,8.6,0,0,1,17.507,7.33Z" transform="translate(0 -3.381)"/>
</svg>
