<?xml version="1.0" encoding="utf-8"?>
<!-- Generator: Adobe Illustrator 17.1.0, SVG Export Plug-In . SVG Version: 6.00 Build 0)  -->
<!DOCTYPE svg PUBLIC "-//W3C//DTD SVG 1.1//EN" "http://www.w3.org/Graphics/SVG/1.1/DTD/svg11.dtd">
<svg version="1.1" xmlns="http://www.w3.org/2000/svg" xmlns:xlink="http://www.w3.org/1999/xlink" x="0px" y="0px"
	 viewBox="0 0 80 80" enable-background="new 0 0 80 80" xml:space="preserve">
<g id="Layer_2">
</g>
<g id="Livello_1">
	<g>
		<path fill="#1A1A1A" d="M56.2,12.6v38.5c0,9-7.3,16.3-16.2,16.3s-16.2-7.4-16.2-16.3V12.6h10.1v38.5c0,3.5,2.7,6.3,6.2,6.3
			s6.2-2.8,6.2-6.3V12.6H56.2 M56.8,12H45.6v39.1c0,3.2-2.5,5.7-5.6,5.7s-5.6-2.6-5.6-5.7V12H23.2v39.1C23.2,60.4,30.8,68,40,68
			s16.8-7.6,16.8-16.9V12L56.8,12z"/>
		<path fill="#1A1A1A" d="M51.2,51.2V17.7l-5.6-5.6v39.1c0,1.6-0.7,3-1.7,4l4,4C50,57.1,51.2,54.3,51.2,51.2z"/>
		<path fill="#1A1A1A" d="M47.9,59.1c-2.1,2.1-4.9,3.3-7.9,3.3s-5.9-1.2-7.9-3.3s-3.3-4.9-3.3-8V17.6L23.2,12v39.1
			c0,4.7,1.9,8.9,4.9,11.9c3,3,7.2,4.9,11.9,4.9s8.8-1.9,11.9-4.9L47.9,59.1z"/>
	</g>
</g>
</svg>
